<svg width="674" height="221" viewBox="0 0 674 221" fill="none" xmlns="http://www.w3.org/2000/svg">
<path d="M240.551 132V79.6364H261.517C265.369 79.6364 268.582 80.2074 271.156 81.3494C273.73 82.4915 275.665 84.0767 276.96 86.1051C278.256 88.1165 278.903 90.4347 278.903 93.0597C278.903 95.1051 278.494 96.9034 277.676 98.4545C276.858 99.9886 275.733 101.25 274.301 102.239C272.886 103.21 271.267 103.901 269.443 104.31V104.821C271.438 104.906 273.304 105.469 275.043 106.509C276.798 107.548 278.222 109.006 279.312 110.881C280.403 112.739 280.949 114.955 280.949 117.528C280.949 120.307 280.259 122.787 278.878 124.969C277.514 127.134 275.494 128.847 272.818 130.108C270.142 131.369 266.844 132 262.923 132H240.551ZM251.622 122.949H260.648C263.733 122.949 265.983 122.361 267.398 121.185C268.813 119.991 269.52 118.406 269.52 116.429C269.52 114.98 269.17 113.702 268.472 112.594C267.773 111.486 266.776 110.616 265.48 109.986C264.202 109.355 262.676 109.04 260.903 109.04H251.622V122.949ZM251.622 101.548H259.83C261.347 101.548 262.693 101.284 263.869 100.756C265.063 100.21 266 99.4432 266.682 98.4545C267.381 97.4659 267.73 96.2812 267.73 94.9006C267.73 93.0085 267.057 91.483 265.71 90.3239C264.381 89.1648 262.489 88.5852 260.034 88.5852H251.622V101.548ZM305.846 132.767C301.806 132.767 298.329 131.949 295.414 130.312C292.516 128.659 290.283 126.324 288.715 123.307C287.147 120.273 286.363 116.685 286.363 112.543C286.363 108.503 287.147 104.957 288.715 101.906C290.283 98.8551 292.491 96.4773 295.337 94.7727C298.201 93.0682 301.559 92.2159 305.411 92.2159C308.002 92.2159 310.414 92.6335 312.647 93.4688C314.897 94.2869 316.857 95.5227 318.528 97.1761C320.215 98.8295 321.528 100.909 322.465 103.415C323.403 105.903 323.871 108.818 323.871 112.159V115.151H290.71V108.401H313.619C313.619 106.832 313.278 105.443 312.596 104.233C311.914 103.023 310.968 102.077 309.758 101.395C308.565 100.696 307.175 100.347 305.59 100.347C303.937 100.347 302.471 100.73 301.192 101.497C299.931 102.247 298.942 103.261 298.227 104.54C297.511 105.801 297.144 107.207 297.127 108.759V115.176C297.127 117.119 297.485 118.798 298.201 120.213C298.934 121.628 299.965 122.719 301.295 123.486C302.624 124.253 304.201 124.636 306.025 124.636C307.235 124.636 308.343 124.466 309.349 124.125C310.354 123.784 311.215 123.273 311.931 122.591C312.647 121.909 313.192 121.074 313.567 120.085L323.641 120.75C323.13 123.17 322.082 125.284 320.496 127.091C318.928 128.881 316.9 130.278 314.411 131.284C311.94 132.273 309.085 132.767 305.846 132.767ZM351.869 92.7273V100.909H328.218V92.7273H351.869ZM333.587 83.3182H344.479V119.932C344.479 120.937 344.633 121.722 344.94 122.284C345.246 122.83 345.673 123.213 346.218 123.435C346.781 123.656 347.428 123.767 348.161 123.767C348.673 123.767 349.184 123.724 349.695 123.639C350.207 123.537 350.599 123.46 350.871 123.409L352.585 131.514C352.039 131.685 351.272 131.881 350.283 132.102C349.295 132.341 348.093 132.486 346.678 132.537C344.053 132.639 341.752 132.29 339.775 131.489C337.815 130.687 336.289 129.443 335.198 127.756C334.107 126.068 333.57 123.937 333.587 121.364V83.3182ZM379.853 92.7273V100.909H356.202V92.7273H379.853ZM361.572 83.3182H372.464V119.932C372.464 120.937 372.617 121.722 372.924 122.284C373.231 122.83 373.657 123.213 374.202 123.435C374.765 123.656 375.413 123.767 376.146 123.767C376.657 123.767 377.168 123.724 377.68 123.639C378.191 123.537 378.583 123.46 378.856 123.409L380.569 131.514C380.023 131.685 379.256 131.881 378.268 132.102C377.279 132.341 376.077 132.486 374.663 132.537C372.038 132.639 369.737 132.29 367.759 131.489C365.799 130.687 364.273 129.443 363.183 127.756C362.092 126.068 361.555 123.937 361.572 121.364V83.3182ZM404.424 132.767C400.384 132.767 396.907 131.949 393.992 130.312C391.094 128.659 388.862 126.324 387.293 123.307C385.725 120.273 384.941 116.685 384.941 112.543C384.941 108.503 385.725 104.957 387.293 101.906C388.862 98.8551 391.069 96.4773 393.915 94.7727C396.779 93.0682 400.137 92.2159 403.989 92.2159C406.58 92.2159 408.992 92.6335 411.225 93.4688C413.475 94.2869 415.435 95.5227 417.106 97.1761C418.793 98.8295 420.106 100.909 421.043 103.415C421.981 105.903 422.45 108.818 422.45 112.159V115.151H389.288V108.401H412.197C412.197 106.832 411.856 105.443 411.174 104.233C410.492 103.023 409.546 102.077 408.336 101.395C407.143 100.696 405.754 100.347 404.168 100.347C402.515 100.347 401.049 100.73 399.771 101.497C398.509 102.247 397.521 103.261 396.805 104.54C396.089 105.801 395.722 107.207 395.705 108.759V115.176C395.705 117.119 396.063 118.798 396.779 120.213C397.512 121.628 398.543 122.719 399.873 123.486C401.202 124.253 402.779 124.636 404.603 124.636C405.813 124.636 406.921 124.466 407.927 124.125C408.933 123.784 409.793 123.273 410.509 122.591C411.225 121.909 411.771 121.074 412.146 120.085L422.219 120.75C421.708 123.17 420.66 125.284 419.075 127.091C417.506 128.881 415.478 130.278 412.989 131.284C410.518 132.273 407.663 132.767 404.424 132.767ZM429.558 132V92.7273H440.117V99.5795H440.526C441.242 97.142 442.444 95.3011 444.131 94.0568C445.819 92.7955 447.762 92.1648 449.961 92.1648C450.506 92.1648 451.094 92.1989 451.725 92.267C452.356 92.3352 452.91 92.429 453.387 92.5483V102.213C452.876 102.06 452.168 101.923 451.265 101.804C450.362 101.685 449.535 101.625 448.785 101.625C447.183 101.625 445.751 101.974 444.489 102.673C443.245 103.355 442.256 104.31 441.523 105.537C440.808 106.764 440.45 108.179 440.45 109.781V132H429.558ZM453.151 88.7642V79.6364H496.156V88.7642H480.125V132H469.182V88.7642H453.151ZM503.034 132V92.7273H513.926V132H503.034ZM508.531 87.6648C506.912 87.6648 505.523 87.1278 504.364 86.054C503.205 84.9631 502.625 83.6591 502.625 82.142C502.625 80.642 503.205 79.3551 504.364 78.2812C505.523 77.1903 506.903 76.6449 508.506 76.6449C510.142 76.6449 511.531 77.1903 512.673 78.2812C513.832 79.3551 514.412 80.642 514.412 82.142C514.412 83.6591 513.832 84.9631 512.673 86.054C511.531 87.1278 510.151 87.6648 508.531 87.6648ZM522.651 132V92.7273H533.032V99.6562H533.492C534.31 97.3551 535.674 95.5398 537.583 94.2102C539.492 92.8807 541.776 92.2159 544.435 92.2159C547.129 92.2159 549.421 92.8892 551.313 94.2358C553.205 95.5653 554.467 97.3722 555.097 99.6562H555.506C556.308 97.4062 557.756 95.608 559.853 94.2614C561.967 92.8977 564.464 92.2159 567.344 92.2159C571.009 92.2159 573.984 93.3835 576.268 95.7188C578.569 98.0369 579.719 101.327 579.719 105.588V132H568.853V107.736C568.853 105.554 568.273 103.918 567.114 102.827C565.955 101.736 564.506 101.19 562.768 101.19C560.79 101.19 559.248 101.821 558.14 103.082C557.032 104.327 556.478 105.972 556.478 108.017V132H545.918V107.506C545.918 105.58 545.364 104.045 544.256 102.903C543.165 101.761 541.725 101.19 539.935 101.19C538.725 101.19 537.634 101.497 536.663 102.111C535.708 102.707 534.95 103.551 534.387 104.642C533.825 105.716 533.543 106.977 533.543 108.426V132H522.651ZM606.221 132.767C602.181 132.767 598.704 131.949 595.789 130.312C592.891 128.659 590.658 126.324 589.09 123.307C587.522 120.273 586.738 116.685 586.738 112.543C586.738 108.503 587.522 104.957 589.09 101.906C590.658 98.8551 592.866 96.4773 595.712 94.7727C598.576 93.0682 601.934 92.2159 605.786 92.2159C608.377 92.2159 610.789 92.6335 613.022 93.4688C615.272 94.2869 617.232 95.5227 618.903 97.1761C620.59 98.8295 621.903 100.909 622.84 103.415C623.778 105.903 624.246 108.818 624.246 112.159V115.151H591.085V108.401H613.994C613.994 106.832 613.653 105.443 612.971 104.233C612.289 103.023 611.343 102.077 610.133 101.395C608.94 100.696 607.55 100.347 605.965 100.347C604.312 100.347 602.846 100.73 601.567 101.497C600.306 102.247 599.317 103.261 598.602 104.54C597.886 105.801 597.519 107.207 597.502 108.759V115.176C597.502 117.119 597.86 118.798 598.576 120.213C599.309 121.628 600.34 122.719 601.67 123.486C602.999 124.253 604.576 124.636 606.4 124.636C607.61 124.636 608.718 124.466 609.724 124.125C610.729 123.784 611.59 123.273 612.306 122.591C613.022 121.909 613.567 121.074 613.942 120.085L624.016 120.75C623.505 123.17 622.457 125.284 620.871 127.091C619.303 128.881 617.275 130.278 614.786 131.284C612.315 132.273 609.46 132.767 606.221 132.767ZM631.354 132V92.7273H641.914V99.5795H642.323C643.039 97.142 644.241 95.3011 645.928 94.0568C647.616 92.7955 649.559 92.1648 651.758 92.1648C652.303 92.1648 652.891 92.1989 653.522 92.267C654.153 92.3352 654.707 92.429 655.184 92.5483V102.213C654.673 102.06 653.965 101.923 653.062 101.804C652.158 101.685 651.332 101.625 650.582 101.625C648.979 101.625 647.548 101.974 646.286 102.673C645.042 103.355 644.053 104.31 643.32 105.537C642.604 106.764 642.246 108.179 642.246 109.781V132H631.354Z" fill="#FDDA5E"/>
<path d="M212 106C212 164.542 164.542 212 106 212C47.4578 212 0 164.542 0 106C0 47.4578 47.4578 0 106 0C164.542 0 212 47.4578 212 106Z" fill="#FDDA5E"/>
<path d="M106 26C92.8439 26 79.8909 29.2446 68.2883 35.4463C56.6856 41.648 46.7916 50.6155 39.4824 61.5544C32.1733 72.4933 27.6747 85.0659 26.3852 98.1586C25.0957 111.251 27.055 124.46 32.0896 136.615C37.1242 148.769 45.0787 159.495 55.2485 167.841C65.4183 176.187 77.4895 181.896 90.3928 184.463C103.296 187.029 116.633 186.374 129.223 182.555C141.812 178.736 153.266 171.871 162.569 162.569L106 106L106 26Z" fill="#A7CB3F"/>
</svg>
