<svg width="674" height="221" viewBox="0 0 674 221" fill="none" xmlns="http://www.w3.org/2000/svg">
<path d="M240.551 132H262.923C274.685 132 280.949 125.864 280.949 117.528C280.949 109.781 275.401 105.102 269.443 104.821V104.31C274.889 103.082 278.903 99.2216 278.903 93.0597C278.903 85.2102 273.074 79.6364 261.517 79.6364H240.551V132ZM251.622 122.949V109.04H260.903C266.222 109.04 269.52 112.108 269.52 116.429C269.52 120.366 266.835 122.949 260.648 122.949H251.622ZM251.622 101.548V88.5852H260.034C264.943 88.5852 267.73 91.1165 267.73 94.9006C267.73 99.0426 264.355 101.548 259.83 101.548H251.622ZM305.846 132.767C315.562 132.767 322.107 128.037 323.641 120.75L313.567 120.085C312.468 123.077 309.656 124.636 306.025 124.636C300.579 124.636 297.127 121.031 297.127 115.176V115.151H323.871V112.159C323.871 98.8125 315.792 92.2159 305.411 92.2159C293.854 92.2159 286.363 100.423 286.363 112.543C286.363 124.994 293.752 132.767 305.846 132.767ZM297.127 108.401C297.357 103.926 300.758 100.347 305.59 100.347C310.32 100.347 313.593 103.722 313.619 108.401H297.127ZM351.869 92.7273H344.479V83.3182H333.587V92.7273H328.218V100.909H333.587V121.364C333.536 129.06 338.778 132.869 346.678 132.537C349.491 132.435 351.485 131.872 352.585 131.514L350.871 123.409C350.335 123.511 349.184 123.767 348.161 123.767C345.988 123.767 344.479 122.949 344.479 119.932V100.909H351.869V92.7273ZM379.853 92.7273H372.464V83.3182H361.572V92.7273H356.202V100.909H361.572V121.364C361.521 129.06 366.762 132.869 374.663 132.537C377.475 132.435 379.469 131.872 380.569 131.514L378.856 123.409C378.319 123.511 377.168 123.767 376.146 123.767C373.972 123.767 372.464 122.949 372.464 119.932V100.909H379.853V92.7273ZM404.424 132.767C414.14 132.767 420.685 128.037 422.219 120.75L412.146 120.085C411.046 123.077 408.234 124.636 404.603 124.636C399.157 124.636 395.705 121.031 395.705 115.176V115.151H422.45V112.159C422.45 98.8125 414.37 92.2159 403.989 92.2159C392.433 92.2159 384.941 100.423 384.941 112.543C384.941 124.994 392.33 132.767 404.424 132.767ZM395.705 108.401C395.935 103.926 399.336 100.347 404.168 100.347C408.898 100.347 412.171 103.722 412.197 108.401H395.705ZM429.558 132H440.45V109.781C440.45 104.949 443.978 101.625 448.785 101.625C450.293 101.625 452.364 101.881 453.387 102.213V92.5483C452.415 92.3182 451.06 92.1648 449.961 92.1648C445.563 92.1648 441.958 94.7216 440.526 99.5795H440.117V92.7273H429.558V132ZM453.151 88.7642H469.182V132H480.125V88.7642H496.156V79.6364H453.151V88.7642ZM503.034 132H513.926V92.7273H503.034V132ZM508.506 87.6648C511.753 87.6648 514.412 85.1847 514.412 82.142C514.412 79.125 511.753 76.6449 508.506 76.6449C505.284 76.6449 502.625 79.125 502.625 82.142C502.625 85.1847 505.284 87.6648 508.506 87.6648ZM522.651 132H533.543V108.426C533.543 104.08 536.305 101.19 539.935 101.19C543.515 101.19 545.918 103.645 545.918 107.506V132H556.478V108.017C556.478 103.952 558.805 101.19 562.768 101.19C566.245 101.19 568.853 103.364 568.853 107.736V132H579.719V105.588C579.719 97.0739 574.657 92.2159 567.344 92.2159C561.592 92.2159 557.117 95.1562 555.506 99.6562H555.097C553.844 95.1051 549.83 92.2159 544.435 92.2159C539.143 92.2159 535.129 95.0284 533.492 99.6562H533.032V92.7273H522.651V132ZM606.221 132.767C615.937 132.767 622.482 128.037 624.016 120.75L613.942 120.085C612.843 123.077 610.031 124.636 606.4 124.636C600.954 124.636 597.502 121.031 597.502 115.176V115.151H624.246V112.159C624.246 98.8125 616.167 92.2159 605.786 92.2159C594.229 92.2159 586.738 100.423 586.738 112.543C586.738 124.994 594.127 132.767 606.221 132.767ZM597.502 108.401C597.732 103.926 601.133 100.347 605.965 100.347C610.695 100.347 613.968 103.722 613.994 108.401H597.502ZM631.354 132H642.246V109.781C642.246 104.949 645.775 101.625 650.582 101.625C652.09 101.625 654.161 101.881 655.184 102.213V92.5483C654.212 92.3182 652.857 92.1648 651.758 92.1648C647.36 92.1648 643.755 94.7216 642.323 99.5795H641.914V92.7273H631.354V132Z" fill="url(#paint0_linear)"/>
<path d="M212 106C212 164.542 164.542 212 106 212C47.4578 212 0 164.542 0 106C0 47.4578 47.4578 0 106 0C164.542 0 212 47.4578 212 106Z" fill="url(#paint1_linear)"/>
<path d="M106 26C92.8439 26 79.8909 29.2446 68.2883 35.4463C56.6856 41.648 46.7916 50.6155 39.4824 61.5544C32.1733 72.4933 27.6747 85.0659 26.3852 98.1586C25.0957 111.251 27.055 124.46 32.0896 136.615C37.1242 148.769 45.0787 159.495 55.2485 167.841C65.4183 176.187 77.4895 181.896 90.3928 184.463C103.296 187.029 116.633 186.374 129.223 182.555C141.812 178.736 153.266 171.871 162.569 162.569L106 106L106 26Z" fill="white"/>
<defs>
<linearGradient id="paint0_linear" x1="455" y1="62" x2="455" y2="221" gradientUnits="userSpaceOnUse">
<stop stop-color="#7B16FC"/>
<stop offset="1" stop-color="#1BE1BE"/>
</linearGradient>
<linearGradient id="paint1_linear" x1="106" y1="0" x2="106" y2="212" gradientUnits="userSpaceOnUse">
<stop stop-color="#7B16FC"/>
<stop offset="1" stop-color="#1BE1BE"/>
</linearGradient>
</defs>
</svg>
