<svg width="746" height="212" viewBox="0 0 746 212" fill="none" xmlns="http://www.w3.org/2000/svg">
<path d="M249.316 150.915C248.98 150.474 248.616 150.166 248.224 149.991C247.839 149.816 247.405 149.728 246.922 149.728C245.984 149.728 245.256 150.068 244.738 150.747C244.227 151.419 243.972 152.402 243.972 153.698C243.972 154.376 244.028 154.957 244.14 155.44C244.259 155.916 244.427 156.308 244.644 156.616C244.868 156.917 245.141 157.141 245.463 157.288C245.785 157.428 246.149 157.498 246.555 157.498C247.15 157.498 247.664 157.365 248.098 157.099C248.532 156.833 248.938 156.459 249.316 155.976V150.915ZM251.374 143.502V159H250.135C249.848 159 249.67 158.863 249.6 158.59L249.421 157.362C248.966 157.901 248.448 158.335 247.867 158.664C247.293 158.986 246.628 159.147 245.872 159.147C245.263 159.147 244.71 159.028 244.213 158.79C243.723 158.552 243.303 158.205 242.953 157.75C242.603 157.288 242.334 156.718 242.145 156.039C241.956 155.36 241.861 154.579 241.861 153.698C241.861 152.906 241.966 152.171 242.176 151.492C242.386 150.813 242.691 150.225 243.09 149.728C243.489 149.231 243.972 148.843 244.539 148.563C245.106 148.276 245.746 148.132 246.46 148.132C247.104 148.132 247.65 148.237 248.098 148.448C248.553 148.657 248.959 148.955 249.316 149.34V143.502H251.374ZM258.777 148.164C259.561 148.164 260.268 148.293 260.898 148.552C261.535 148.804 262.074 149.172 262.515 149.655C262.963 150.131 263.306 150.708 263.544 151.387C263.782 152.059 263.901 152.815 263.901 153.655C263.901 154.495 263.782 155.255 263.544 155.934C263.306 156.613 262.963 157.19 262.515 157.666C262.074 158.142 261.535 158.51 260.898 158.769C260.268 159.021 259.561 159.147 258.777 159.147C257.986 159.147 257.272 159.021 256.635 158.769C256.005 158.51 255.466 158.142 255.018 157.666C254.57 157.19 254.223 156.613 253.978 155.934C253.74 155.255 253.621 154.495 253.621 153.655C253.621 152.815 253.74 152.059 253.978 151.387C254.223 150.708 254.57 150.131 255.018 149.655C255.466 149.172 256.005 148.804 256.635 148.552C257.272 148.293 257.986 148.164 258.777 148.164ZM258.777 157.551C259.785 157.551 260.537 157.211 261.034 156.532C261.531 155.853 261.78 154.898 261.78 153.666C261.78 152.434 261.531 151.478 261.034 150.799C260.537 150.113 259.785 149.77 258.777 149.77C257.755 149.77 256.992 150.113 256.488 150.799C255.991 151.478 255.742 152.434 255.742 153.666C255.742 154.898 255.991 155.853 256.488 156.532C256.992 157.211 257.755 157.551 258.777 157.551ZM273.253 152.479C273.253 152.073 273.194 151.699 273.075 151.356C272.963 151.013 272.795 150.715 272.571 150.463C272.347 150.211 272.074 150.015 271.752 149.875C271.43 149.735 271.059 149.665 270.639 149.665C269.778 149.665 269.099 149.914 268.602 150.411C268.112 150.908 267.8 151.597 267.667 152.479H273.253ZM274.944 157.477C274.692 157.771 274.401 158.027 274.072 158.244C273.743 158.454 273.393 158.625 273.022 158.758C272.651 158.891 272.266 158.989 271.867 159.053C271.475 159.116 271.087 159.147 270.702 159.147C269.967 159.147 269.284 159.024 268.654 158.779C268.031 158.527 267.489 158.163 267.027 157.688C266.572 157.204 266.215 156.609 265.956 155.902C265.704 155.188 265.578 154.369 265.578 153.445C265.578 152.703 265.693 152.014 265.924 151.377C266.155 150.733 266.484 150.173 266.911 149.697C267.345 149.221 267.874 148.846 268.497 148.573C269.12 148.3 269.82 148.164 270.597 148.164C271.248 148.164 271.846 148.272 272.392 148.489C272.945 148.699 273.421 149.007 273.82 149.413C274.219 149.819 274.531 150.32 274.755 150.915C274.986 151.51 275.101 152.189 275.101 152.952C275.101 153.267 275.066 153.48 274.996 153.592C274.926 153.697 274.797 153.75 274.608 153.75H267.615C267.636 154.387 267.727 154.943 267.888 155.419C268.049 155.888 268.269 156.28 268.549 156.595C268.836 156.91 269.176 157.145 269.568 157.299C269.96 157.453 270.397 157.53 270.88 157.53C271.335 157.53 271.727 157.477 272.056 157.372C272.392 157.267 272.679 157.155 272.917 157.036C273.162 156.91 273.365 156.795 273.526 156.69C273.694 156.585 273.841 156.532 273.967 156.532C274.135 156.532 274.265 156.595 274.356 156.721L274.944 157.477ZM283.591 150.169C283.535 150.26 283.476 150.327 283.413 150.369C283.35 150.404 283.269 150.421 283.171 150.421C283.059 150.421 282.933 150.383 282.793 150.306C282.66 150.229 282.496 150.145 282.3 150.054C282.111 149.963 281.887 149.879 281.628 149.802C281.369 149.725 281.061 149.686 280.704 149.686C280.41 149.686 280.14 149.725 279.895 149.802C279.657 149.872 279.454 149.973 279.286 150.106C279.118 150.232 278.989 150.386 278.898 150.568C278.807 150.743 278.761 150.932 278.761 151.135C278.761 151.401 278.838 151.622 278.992 151.797C279.153 151.972 279.36 152.122 279.612 152.248C279.871 152.374 280.161 152.49 280.483 152.595C280.812 152.693 281.145 152.798 281.481 152.91C281.824 153.022 282.156 153.151 282.478 153.298C282.807 153.438 283.098 153.617 283.35 153.834C283.609 154.044 283.815 154.299 283.969 154.6C284.13 154.901 284.211 155.269 284.211 155.703C284.211 156.2 284.12 156.662 283.938 157.089C283.763 157.509 283.5 157.873 283.15 158.181C282.807 158.489 282.38 158.73 281.869 158.905C281.358 159.081 280.774 159.168 280.116 159.168C279.381 159.168 278.702 159.046 278.079 158.8C277.456 158.555 276.934 158.244 276.514 157.866L276.997 157.078C277.053 156.98 277.123 156.907 277.207 156.858C277.291 156.802 277.403 156.774 277.543 156.774C277.676 156.774 277.813 156.823 277.953 156.921C278.093 157.019 278.261 157.127 278.457 157.246C278.653 157.358 278.891 157.463 279.171 157.561C279.451 157.652 279.801 157.698 280.221 157.698C280.571 157.698 280.875 157.656 281.134 157.572C281.393 157.481 281.607 157.362 281.775 157.215C281.95 157.061 282.079 156.886 282.163 156.69C282.247 156.494 282.289 156.287 282.289 156.07C282.289 155.79 282.209 155.559 282.048 155.377C281.894 155.188 281.687 155.027 281.428 154.894C281.176 154.761 280.886 154.646 280.557 154.548C280.228 154.45 279.892 154.345 279.549 154.233C279.206 154.121 278.87 153.991 278.541 153.844C278.212 153.697 277.918 153.512 277.659 153.288C277.407 153.064 277.2 152.791 277.039 152.469C276.885 152.147 276.808 151.755 276.808 151.293C276.808 150.88 276.892 150.484 277.06 150.106C277.235 149.728 277.484 149.396 277.806 149.109C278.135 148.822 278.537 148.594 279.013 148.426C279.496 148.251 280.046 148.164 280.662 148.164C281.369 148.164 282.006 148.276 282.573 148.5C283.147 148.724 283.637 149.032 284.043 149.424L283.591 150.169ZM306.145 148.332L302.712 159H301.074C300.878 159 300.745 158.87 300.675 158.611L298.428 151.66C298.372 151.485 298.323 151.314 298.281 151.146C298.239 150.971 298.2 150.796 298.165 150.621C298.102 150.985 298.015 151.338 297.903 151.681L295.624 158.611C295.554 158.87 295.404 159 295.173 159H293.619L290.175 148.332H291.792C291.953 148.332 292.086 148.37 292.191 148.448C292.303 148.524 292.376 148.622 292.411 148.741L294.333 155.293C294.396 155.559 294.452 155.818 294.501 156.07C294.55 156.322 294.595 156.574 294.637 156.826C294.7 156.574 294.767 156.322 294.837 156.07C294.914 155.818 294.991 155.559 295.068 155.293L297.199 148.699C297.234 148.58 297.301 148.486 297.399 148.416C297.497 148.339 297.616 148.3 297.756 148.3H298.648C298.802 148.3 298.928 148.339 299.026 148.416C299.131 148.486 299.201 148.58 299.236 148.699L301.315 155.293C301.392 155.559 301.466 155.822 301.536 156.081C301.606 156.333 301.669 156.588 301.725 156.847C301.767 156.595 301.816 156.343 301.872 156.091C301.928 155.832 301.991 155.566 302.061 155.293L304.014 148.741C304.049 148.622 304.119 148.524 304.224 148.448C304.336 148.37 304.462 148.332 304.602 148.332H306.145ZM309.926 149.686C310.374 149.231 310.868 148.864 311.407 148.584C311.953 148.304 312.579 148.164 313.286 148.164C313.874 148.164 314.389 148.262 314.83 148.458C315.278 148.654 315.652 148.93 315.953 149.287C316.254 149.637 316.482 150.061 316.636 150.558C316.79 151.055 316.867 151.604 316.867 152.206V159H314.809V152.206C314.809 151.443 314.634 150.852 314.284 150.432C313.934 150.005 313.398 149.791 312.677 149.791C312.152 149.791 311.659 149.917 311.197 150.169C310.742 150.414 310.318 150.75 309.926 151.177V159H307.879V143.502H309.926V149.686ZM325.363 154.264C324.53 154.292 323.823 154.359 323.242 154.464C322.661 154.562 322.188 154.695 321.824 154.863C321.46 155.031 321.198 155.23 321.037 155.461C320.876 155.685 320.795 155.937 320.795 156.217C320.795 156.483 320.837 156.714 320.921 156.91C321.012 157.099 321.131 157.257 321.278 157.383C321.432 157.502 321.611 157.589 321.814 157.645C322.017 157.701 322.237 157.729 322.475 157.729C322.79 157.729 323.077 157.698 323.336 157.635C323.602 157.572 323.851 157.484 324.082 157.372C324.313 157.253 324.533 157.11 324.743 156.942C324.953 156.774 325.16 156.581 325.363 156.364V154.264ZM319.357 149.823C319.952 149.256 320.596 148.832 321.289 148.552C321.989 148.272 322.755 148.132 323.588 148.132C324.197 148.132 324.736 148.234 325.205 148.437C325.674 148.633 326.07 148.909 326.392 149.266C326.714 149.623 326.955 150.05 327.116 150.547C327.284 151.044 327.368 151.594 327.368 152.196V159H326.455C326.252 159 326.098 158.968 325.993 158.905C325.888 158.835 325.804 158.709 325.741 158.527L325.52 157.593C325.247 157.845 324.978 158.069 324.712 158.265C324.446 158.454 324.166 158.618 323.872 158.758C323.585 158.891 323.277 158.993 322.948 159.063C322.619 159.133 322.255 159.168 321.856 159.168C321.436 159.168 321.04 159.112 320.669 159C320.305 158.881 319.987 158.702 319.714 158.464C319.441 158.226 319.224 157.929 319.063 157.572C318.909 157.215 318.832 156.798 318.832 156.322C318.832 155.902 318.944 155.5 319.168 155.115C319.399 154.723 319.77 154.373 320.281 154.065C320.799 153.757 321.471 153.505 322.297 153.309C323.13 153.113 324.152 153.001 325.363 152.973V152.196C325.363 151.391 325.191 150.789 324.848 150.39C324.505 149.991 324.001 149.791 323.336 149.791C322.888 149.791 322.51 149.847 322.202 149.959C321.901 150.071 321.639 150.197 321.415 150.337C321.198 150.47 321.005 150.593 320.837 150.705C320.676 150.817 320.508 150.873 320.333 150.873C320.193 150.873 320.071 150.834 319.966 150.757C319.868 150.68 319.787 150.589 319.724 150.484L319.357 149.823ZM333.305 159.168C332.444 159.168 331.779 158.926 331.31 158.443C330.848 157.96 330.617 157.271 330.617 156.375V149.991H329.378C329.259 149.991 329.157 149.956 329.073 149.886C328.996 149.809 328.958 149.697 328.958 149.55V148.72L330.69 148.479L331.152 145.297C331.18 145.178 331.233 145.087 331.31 145.024C331.394 144.954 331.499 144.919 331.625 144.919H332.664V148.5H335.688V149.991H332.664V156.238C332.664 156.658 332.766 156.973 332.969 157.183C333.179 157.386 333.445 157.488 333.767 157.488C333.956 157.488 334.117 157.463 334.25 157.414C334.39 157.365 334.509 157.313 334.607 157.257C334.705 157.194 334.789 157.138 334.859 157.089C334.929 157.04 334.992 157.015 335.048 157.015C335.118 157.015 335.17 157.033 335.205 157.068C335.247 157.096 335.289 157.145 335.331 157.215L335.94 158.202C335.604 158.51 335.205 158.748 334.743 158.916C334.281 159.084 333.802 159.168 333.305 159.168ZM353.837 155.766C353.963 155.766 354.072 155.815 354.163 155.913L355.045 156.879C354.429 157.607 353.676 158.17 352.787 158.569C351.905 158.969 350.841 159.168 349.595 159.168C348.503 159.168 347.513 158.979 346.624 158.601C345.742 158.223 344.986 157.694 344.356 157.015C343.733 156.336 343.25 155.524 342.907 154.579C342.564 153.634 342.392 152.595 342.392 151.461C342.392 150.327 342.571 149.287 342.928 148.342C343.292 147.397 343.799 146.585 344.45 145.906C345.101 145.227 345.878 144.699 346.781 144.321C347.691 143.943 348.696 143.754 349.795 143.754C350.866 143.754 351.818 143.929 352.651 144.279C353.484 144.629 354.208 145.094 354.824 145.675L354.089 146.715C354.04 146.792 353.977 146.855 353.9 146.904C353.83 146.953 353.736 146.977 353.617 146.977C353.484 146.977 353.326 146.911 353.144 146.778C352.969 146.645 352.735 146.498 352.441 146.337C352.154 146.169 351.797 146.018 351.37 145.885C350.943 145.752 350.411 145.686 349.774 145.686C349.025 145.686 348.339 145.819 347.716 146.085C347.093 146.344 346.554 146.722 346.099 147.219C345.651 147.709 345.301 148.314 345.049 149.035C344.804 149.749 344.681 150.558 344.681 151.461C344.681 152.378 344.811 153.193 345.07 153.907C345.329 154.621 345.686 155.227 346.141 155.724C346.596 156.221 347.131 156.599 347.747 156.858C348.363 157.117 349.028 157.246 349.742 157.246C350.176 157.246 350.565 157.222 350.908 157.173C351.258 157.117 351.576 157.036 351.863 156.931C352.157 156.826 352.434 156.693 352.693 156.532C352.952 156.364 353.207 156.165 353.459 155.934C353.515 155.885 353.575 155.846 353.638 155.818C353.701 155.783 353.767 155.766 353.837 155.766ZM361.214 148.164C361.998 148.164 362.705 148.293 363.335 148.552C363.972 148.804 364.511 149.172 364.952 149.655C365.4 150.131 365.743 150.708 365.981 151.387C366.219 152.059 366.338 152.815 366.338 153.655C366.338 154.495 366.219 155.255 365.981 155.934C365.743 156.613 365.4 157.19 364.952 157.666C364.511 158.142 363.972 158.51 363.335 158.769C362.705 159.021 361.998 159.147 361.214 159.147C360.423 159.147 359.709 159.021 359.072 158.769C358.442 158.51 357.903 158.142 357.455 157.666C357.007 157.19 356.66 156.613 356.415 155.934C356.177 155.255 356.058 154.495 356.058 153.655C356.058 152.815 356.177 152.059 356.415 151.387C356.66 150.708 357.007 150.131 357.455 149.655C357.903 149.172 358.442 148.804 359.072 148.552C359.709 148.293 360.423 148.164 361.214 148.164ZM361.214 157.551C362.222 157.551 362.974 157.211 363.471 156.532C363.968 155.853 364.217 154.898 364.217 153.666C364.217 152.434 363.968 151.478 363.471 150.799C362.974 150.113 362.222 149.77 361.214 149.77C360.192 149.77 359.429 150.113 358.925 150.799C358.428 151.478 358.179 152.434 358.179 153.666C358.179 154.898 358.428 155.853 358.925 156.532C359.429 157.211 360.192 157.551 361.214 157.551ZM377.496 148.332V159H376.267C375.987 159 375.805 158.863 375.721 158.59L375.574 157.519C375.343 157.764 375.102 157.988 374.85 158.191C374.598 158.394 374.328 158.569 374.041 158.716C373.754 158.856 373.45 158.965 373.128 159.042C372.806 159.126 372.459 159.168 372.088 159.168C371.5 159.168 370.982 159.07 370.534 158.874C370.093 158.678 369.722 158.405 369.421 158.055C369.12 157.698 368.893 157.271 368.739 156.774C368.585 156.277 368.508 155.727 368.508 155.125V148.332H370.566V155.125C370.566 155.888 370.741 156.483 371.091 156.91C371.441 157.33 371.976 157.54 372.697 157.54C373.222 157.54 373.712 157.418 374.167 157.173C374.622 156.921 375.049 156.578 375.448 156.144V148.332H377.496ZM382.275 149.812C382.506 149.567 382.748 149.343 383 149.14C383.252 148.937 383.518 148.766 383.798 148.626C384.085 148.479 384.389 148.367 384.711 148.29C385.04 148.206 385.39 148.164 385.761 148.164C386.349 148.164 386.864 148.262 387.305 148.458C387.753 148.654 388.127 148.93 388.428 149.287C388.729 149.637 388.957 150.061 389.111 150.558C389.265 151.055 389.342 151.604 389.342 152.206V159H387.284V152.206C387.284 151.443 387.109 150.852 386.759 150.432C386.409 150.005 385.873 149.791 385.152 149.791C384.627 149.791 384.134 149.917 383.672 150.169C383.217 150.414 382.793 150.75 382.401 151.177V159H380.354V148.332H381.582C381.869 148.332 382.048 148.468 382.118 148.741L382.275 149.812ZM395.3 159.168C394.439 159.168 393.774 158.926 393.305 158.443C392.843 157.96 392.612 157.271 392.612 156.375V149.991H391.373C391.254 149.991 391.152 149.956 391.068 149.886C390.991 149.809 390.953 149.697 390.953 149.55V148.72L392.685 148.479L393.147 145.297C393.175 145.178 393.228 145.087 393.305 145.024C393.389 144.954 393.494 144.919 393.62 144.919H394.659V148.5H397.683V149.991H394.659V156.238C394.659 156.658 394.761 156.973 394.964 157.183C395.174 157.386 395.44 157.488 395.762 157.488C395.951 157.488 396.112 157.463 396.245 157.414C396.385 157.365 396.504 157.313 396.602 157.257C396.7 157.194 396.784 157.138 396.854 157.089C396.924 157.04 396.987 157.015 397.043 157.015C397.113 157.015 397.165 157.033 397.2 157.068C397.242 157.096 397.284 157.145 397.326 157.215L397.935 158.202C397.599 158.51 397.2 158.748 396.738 158.916C396.276 159.084 395.797 159.168 395.3 159.168ZM413.146 151.461C413.146 152.588 412.964 153.613 412.6 154.537C412.243 155.461 411.735 156.256 411.077 156.921C410.419 157.579 409.632 158.09 408.715 158.454C407.798 158.818 406.779 159 405.659 159H399.989V143.922H405.659C406.779 143.922 407.798 144.104 408.715 144.468C409.632 144.832 410.419 145.346 411.077 146.011C411.735 146.669 412.243 147.464 412.6 148.395C412.964 149.319 413.146 150.341 413.146 151.461ZM410.857 151.461C410.857 150.565 410.734 149.763 410.489 149.056C410.244 148.342 409.894 147.74 409.439 147.25C408.991 146.753 408.445 146.375 407.801 146.116C407.164 145.857 406.45 145.728 405.659 145.728H402.236V157.194H405.659C406.45 157.194 407.164 157.064 407.801 156.805C408.445 156.546 408.991 156.172 409.439 155.682C409.894 155.185 410.244 154.583 410.489 153.876C410.734 153.169 410.857 152.364 410.857 151.461ZM419.948 148.164C420.732 148.164 421.439 148.293 422.069 148.552C422.706 148.804 423.245 149.172 423.686 149.655C424.134 150.131 424.477 150.708 424.715 151.387C424.953 152.059 425.072 152.815 425.072 153.655C425.072 154.495 424.953 155.255 424.715 155.934C424.477 156.613 424.134 157.19 423.686 157.666C423.245 158.142 422.706 158.51 422.069 158.769C421.439 159.021 420.732 159.147 419.948 159.147C419.157 159.147 418.443 159.021 417.806 158.769C417.176 158.51 416.637 158.142 416.189 157.666C415.741 157.19 415.394 156.613 415.149 155.934C414.911 155.255 414.792 154.495 414.792 153.655C414.792 152.815 414.911 152.059 415.149 151.387C415.394 150.708 415.741 150.131 416.189 149.655C416.637 149.172 417.176 148.804 417.806 148.552C418.443 148.293 419.157 148.164 419.948 148.164ZM419.948 157.551C420.956 157.551 421.708 157.211 422.205 156.532C422.702 155.853 422.951 154.898 422.951 153.666C422.951 152.434 422.702 151.478 422.205 150.799C421.708 150.113 420.956 149.77 419.948 149.77C418.926 149.77 418.163 150.113 417.659 150.799C417.162 151.478 416.913 152.434 416.913 153.666C416.913 154.898 417.162 155.853 417.659 156.532C418.163 157.211 418.926 157.551 419.948 157.551ZM442.03 148.332L438.596 159H436.958C436.762 159 436.629 158.87 436.559 158.611L434.312 151.66C434.256 151.485 434.207 151.314 434.165 151.146C434.123 150.971 434.085 150.796 434.05 150.621C433.987 150.985 433.899 151.338 433.787 151.681L431.509 158.611C431.439 158.87 431.288 159 431.057 159H429.503L426.059 148.332H427.676C427.837 148.332 427.97 148.37 428.075 148.448C428.187 148.524 428.261 148.622 428.296 148.741L430.217 155.293C430.28 155.559 430.336 155.818 430.385 156.07C430.434 156.322 430.48 156.574 430.522 156.826C430.585 156.574 430.651 156.322 430.721 156.07C430.798 155.818 430.875 155.559 430.952 155.293L433.084 148.699C433.119 148.58 433.185 148.486 433.283 148.416C433.381 148.339 433.5 148.3 433.64 148.3H434.533C434.687 148.3 434.813 148.339 434.911 148.416C435.016 148.486 435.086 148.58 435.121 148.699L437.2 155.293C437.277 155.559 437.35 155.822 437.42 156.081C437.49 156.333 437.553 156.588 437.609 156.847C437.651 156.595 437.7 156.343 437.756 156.091C437.812 155.832 437.875 155.566 437.945 155.293L439.898 148.741C439.933 148.622 440.003 148.524 440.108 148.448C440.22 148.37 440.346 148.332 440.486 148.332H442.03ZM445.685 149.812C445.916 149.567 446.158 149.343 446.41 149.14C446.662 148.937 446.928 148.766 447.208 148.626C447.495 148.479 447.799 148.367 448.121 148.29C448.45 148.206 448.8 148.164 449.171 148.164C449.759 148.164 450.274 148.262 450.715 148.458C451.163 148.654 451.537 148.93 451.838 149.287C452.139 149.637 452.367 150.061 452.521 150.558C452.675 151.055 452.752 151.604 452.752 152.206V159H450.694V152.206C450.694 151.443 450.519 150.852 450.169 150.432C449.819 150.005 449.283 149.791 448.562 149.791C448.037 149.791 447.544 149.917 447.082 150.169C446.627 150.414 446.203 150.75 445.811 151.177V159H443.764V148.332H444.992C445.279 148.332 445.458 148.468 445.528 148.741L445.685 149.812ZM463.63 145.791H458.842V159H456.616V145.791H451.807V143.922H463.63V145.791ZM467.439 148.332V159H465.391V148.332H467.439ZM467.827 145.035C467.827 145.224 467.789 145.406 467.712 145.581C467.635 145.749 467.53 145.899 467.397 146.032C467.271 146.158 467.12 146.26 466.945 146.337C466.77 146.407 466.588 146.442 466.399 146.442C466.21 146.442 466.032 146.407 465.864 146.337C465.696 146.26 465.545 146.158 465.412 146.032C465.286 145.899 465.185 145.749 465.108 145.581C465.038 145.406 465.003 145.224 465.003 145.035C465.003 144.839 465.038 144.657 465.108 144.489C465.185 144.314 465.286 144.163 465.412 144.037C465.545 143.904 465.696 143.803 465.864 143.733C466.032 143.656 466.21 143.617 466.399 143.617C466.588 143.617 466.77 143.656 466.945 143.733C467.12 143.803 467.271 143.904 467.397 144.037C467.53 144.163 467.635 144.314 467.712 144.489C467.789 144.657 467.827 144.839 467.827 145.035ZM470.403 159V148.332H471.632C471.919 148.332 472.097 148.468 472.167 148.741L472.314 149.76C472.706 149.291 473.14 148.909 473.616 148.615C474.099 148.314 474.663 148.164 475.307 148.164C476.014 148.164 476.588 148.36 477.029 148.752C477.47 149.137 477.792 149.662 477.995 150.327C478.149 149.949 478.348 149.623 478.593 149.35C478.838 149.077 479.111 148.853 479.412 148.678C479.713 148.503 480.032 148.374 480.368 148.29C480.711 148.206 481.057 148.164 481.407 148.164C481.974 148.164 482.478 148.255 482.919 148.437C483.367 148.612 483.745 148.871 484.053 149.214C484.361 149.557 484.596 149.98 484.757 150.484C484.918 150.988 484.998 151.562 484.998 152.206V159H482.94V152.206C482.94 151.408 482.765 150.806 482.415 150.4C482.072 149.994 481.568 149.791 480.903 149.791C480.609 149.791 480.329 149.844 480.063 149.949C479.797 150.047 479.563 150.197 479.36 150.4C479.164 150.603 479.006 150.855 478.887 151.156C478.775 151.457 478.719 151.807 478.719 152.206V159H476.661V152.206C476.661 151.38 476.497 150.771 476.168 150.379C475.839 149.987 475.356 149.791 474.719 149.791C474.278 149.791 473.868 149.907 473.49 150.138C473.112 150.369 472.766 150.684 472.451 151.083V159H470.403ZM494.819 152.479C494.819 152.073 494.76 151.699 494.641 151.356C494.529 151.013 494.361 150.715 494.137 150.463C493.913 150.211 493.64 150.015 493.318 149.875C492.996 149.735 492.625 149.665 492.205 149.665C491.344 149.665 490.665 149.914 490.168 150.411C489.678 150.908 489.366 151.597 489.233 152.479H494.819ZM496.51 157.477C496.258 157.771 495.967 158.027 495.638 158.244C495.309 158.454 494.959 158.625 494.588 158.758C494.217 158.891 493.832 158.989 493.433 159.053C493.041 159.116 492.653 159.147 492.268 159.147C491.533 159.147 490.85 159.024 490.22 158.779C489.597 158.527 489.055 158.163 488.593 157.688C488.138 157.204 487.781 156.609 487.522 155.902C487.27 155.188 487.144 154.369 487.144 153.445C487.144 152.703 487.259 152.014 487.49 151.377C487.721 150.733 488.05 150.173 488.477 149.697C488.911 149.221 489.44 148.846 490.063 148.573C490.686 148.3 491.386 148.164 492.163 148.164C492.814 148.164 493.412 148.272 493.958 148.489C494.511 148.699 494.987 149.007 495.386 149.413C495.785 149.819 496.097 150.32 496.321 150.915C496.552 151.51 496.667 152.189 496.667 152.952C496.667 153.267 496.632 153.48 496.562 153.592C496.492 153.697 496.363 153.75 496.174 153.75H489.181C489.202 154.387 489.293 154.943 489.454 155.419C489.615 155.888 489.835 156.28 490.115 156.595C490.402 156.91 490.742 157.145 491.134 157.299C491.526 157.453 491.963 157.53 492.446 157.53C492.901 157.53 493.293 157.477 493.622 157.372C493.958 157.267 494.245 157.155 494.483 157.036C494.728 156.91 494.931 156.795 495.092 156.69C495.26 156.585 495.407 156.532 495.533 156.532C495.701 156.532 495.831 156.595 495.922 156.721L496.51 157.477ZM500.8 150.379C501.143 149.679 501.556 149.13 502.039 148.731C502.522 148.332 503.103 148.132 503.782 148.132C504.013 148.132 504.23 148.16 504.433 148.216C504.643 148.265 504.825 148.342 504.979 148.448L504.843 149.991C504.794 150.18 504.678 150.274 504.496 150.274C504.398 150.274 504.251 150.257 504.055 150.222C503.859 150.18 503.649 150.159 503.425 150.159C503.096 150.159 502.806 150.208 502.554 150.306C502.302 150.397 502.074 150.537 501.871 150.726C501.675 150.908 501.5 151.135 501.346 151.408C501.192 151.674 501.049 151.979 500.916 152.322V159H498.868V148.332H500.044C500.268 148.332 500.419 148.374 500.496 148.458C500.58 148.535 500.639 148.675 500.674 148.878L500.8 150.379ZM518.296 150.915C517.96 150.474 517.596 150.166 517.204 149.991C516.819 149.816 516.385 149.728 515.902 149.728C514.964 149.728 514.236 150.068 513.718 150.747C513.207 151.419 512.952 152.402 512.952 153.698C512.952 154.376 513.008 154.957 513.12 155.44C513.239 155.916 513.407 156.308 513.624 156.616C513.848 156.917 514.121 157.141 514.443 157.288C514.765 157.428 515.129 157.498 515.535 157.498C516.13 157.498 516.644 157.365 517.078 157.099C517.512 156.833 517.918 156.459 518.296 155.976V150.915ZM520.354 143.502V159H519.115C518.828 159 518.65 158.863 518.58 158.59L518.401 157.362C517.946 157.901 517.428 158.335 516.847 158.664C516.273 158.986 515.608 159.147 514.852 159.147C514.243 159.147 513.69 159.028 513.193 158.79C512.703 158.552 512.283 158.205 511.933 157.75C511.583 157.288 511.314 156.718 511.125 156.039C510.936 155.36 510.841 154.579 510.841 153.698C510.841 152.906 510.946 152.171 511.156 151.492C511.366 150.813 511.671 150.225 512.07 149.728C512.469 149.231 512.952 148.843 513.519 148.563C514.086 148.276 514.726 148.132 515.44 148.132C516.084 148.132 516.63 148.237 517.078 148.448C517.533 148.657 517.939 148.955 518.296 149.34V143.502H520.354ZM527.757 148.164C528.541 148.164 529.248 148.293 529.878 148.552C530.515 148.804 531.054 149.172 531.495 149.655C531.943 150.131 532.286 150.708 532.524 151.387C532.762 152.059 532.881 152.815 532.881 153.655C532.881 154.495 532.762 155.255 532.524 155.934C532.286 156.613 531.943 157.19 531.495 157.666C531.054 158.142 530.515 158.51 529.878 158.769C529.248 159.021 528.541 159.147 527.757 159.147C526.966 159.147 526.252 159.021 525.615 158.769C524.985 158.51 524.446 158.142 523.998 157.666C523.55 157.19 523.204 156.613 522.959 155.934C522.721 155.255 522.602 154.495 522.602 153.655C522.602 152.815 522.721 152.059 522.959 151.387C523.204 150.708 523.55 150.131 523.998 149.655C524.446 149.172 524.985 148.804 525.615 148.552C526.252 148.293 526.966 148.164 527.757 148.164ZM527.757 157.551C528.765 157.551 529.518 157.211 530.015 156.532C530.512 155.853 530.76 154.898 530.76 153.666C530.76 152.434 530.512 151.478 530.015 150.799C529.518 150.113 528.765 149.77 527.757 149.77C526.735 149.77 525.972 150.113 525.468 150.799C524.971 151.478 524.723 152.434 524.723 153.666C524.723 154.898 524.971 155.853 525.468 156.532C525.972 157.211 526.735 157.551 527.757 157.551ZM542.234 152.479C542.234 152.073 542.174 151.699 542.055 151.356C541.943 151.013 541.775 150.715 541.551 150.463C541.327 150.211 541.054 150.015 540.732 149.875C540.41 149.735 540.039 149.665 539.619 149.665C538.758 149.665 538.079 149.914 537.582 150.411C537.092 150.908 536.781 151.597 536.648 152.479H542.234ZM543.924 157.477C543.672 157.771 543.382 158.027 543.053 158.244C542.724 158.454 542.374 158.625 542.003 158.758C541.632 158.891 541.247 158.989 540.848 159.053C540.456 159.116 540.067 159.147 539.682 159.147C538.947 159.147 538.265 159.024 537.635 158.779C537.012 158.527 536.469 158.163 536.007 157.688C535.552 157.204 535.195 156.609 534.936 155.902C534.684 155.188 534.558 154.369 534.558 153.445C534.558 152.703 534.674 152.014 534.905 151.377C535.136 150.733 535.465 150.173 535.892 149.697C536.326 149.221 536.854 148.846 537.477 148.573C538.1 148.3 538.8 148.164 539.577 148.164C540.228 148.164 540.827 148.272 541.373 148.489C541.926 148.699 542.402 149.007 542.801 149.413C543.2 149.819 543.511 150.32 543.735 150.915C543.966 151.51 544.082 152.189 544.082 152.952C544.082 153.267 544.047 153.48 543.977 153.592C543.907 153.697 543.777 153.75 543.588 153.75H536.595C536.616 154.387 536.707 154.943 536.868 155.419C537.029 155.888 537.25 156.28 537.53 156.595C537.817 156.91 538.156 157.145 538.548 157.299C538.94 157.453 539.378 157.53 539.861 157.53C540.316 157.53 540.708 157.477 541.037 157.372C541.373 157.267 541.66 157.155 541.898 157.036C542.143 156.91 542.346 156.795 542.507 156.69C542.675 156.585 542.822 156.532 542.948 156.532C543.116 156.532 543.245 156.595 543.336 156.721L543.924 157.477ZM552.572 150.169C552.516 150.26 552.456 150.327 552.393 150.369C552.33 150.404 552.25 150.421 552.152 150.421C552.04 150.421 551.914 150.383 551.774 150.306C551.641 150.229 551.476 150.145 551.28 150.054C551.091 149.963 550.867 149.879 550.608 149.802C550.349 149.725 550.041 149.686 549.684 149.686C549.39 149.686 549.121 149.725 548.876 149.802C548.638 149.872 548.435 149.973 548.267 150.106C548.099 150.232 547.969 150.386 547.878 150.568C547.787 150.743 547.742 150.932 547.742 151.135C547.742 151.401 547.819 151.622 547.973 151.797C548.134 151.972 548.34 152.122 548.592 152.248C548.851 152.374 549.142 152.49 549.464 152.595C549.793 152.693 550.125 152.798 550.461 152.91C550.804 153.022 551.137 153.151 551.459 153.298C551.788 153.438 552.078 153.617 552.33 153.834C552.589 154.044 552.796 154.299 552.95 154.6C553.111 154.901 553.191 155.269 553.191 155.703C553.191 156.2 553.1 156.662 552.918 157.089C552.743 157.509 552.481 157.873 552.131 158.181C551.788 158.489 551.361 158.73 550.85 158.905C550.339 159.081 549.754 159.168 549.096 159.168C548.361 159.168 547.682 159.046 547.059 158.8C546.436 158.555 545.915 158.244 545.495 157.866L545.978 157.078C546.034 156.98 546.104 156.907 546.188 156.858C546.272 156.802 546.384 156.774 546.524 156.774C546.657 156.774 546.793 156.823 546.933 156.921C547.073 157.019 547.241 157.127 547.437 157.246C547.633 157.358 547.871 157.463 548.151 157.561C548.431 157.652 548.781 157.698 549.201 157.698C549.551 157.698 549.856 157.656 550.115 157.572C550.374 157.481 550.587 157.362 550.755 157.215C550.93 157.061 551.06 156.886 551.144 156.69C551.228 156.494 551.27 156.287 551.27 156.07C551.27 155.79 551.189 155.559 551.028 155.377C550.874 155.188 550.668 155.027 550.409 154.894C550.157 154.761 549.866 154.646 549.537 154.548C549.208 154.45 548.872 154.345 548.529 154.233C548.186 154.121 547.85 153.991 547.521 153.844C547.192 153.697 546.898 153.512 546.639 153.288C546.387 153.064 546.181 152.791 546.02 152.469C545.866 152.147 545.789 151.755 545.789 151.293C545.789 150.88 545.873 150.484 546.041 150.106C546.216 149.728 546.464 149.396 546.786 149.109C547.115 148.822 547.518 148.594 547.994 148.426C548.477 148.251 549.026 148.164 549.642 148.164C550.349 148.164 550.986 148.276 551.553 148.5C552.127 148.724 552.617 149.032 553.023 149.424L552.572 150.169ZM557.33 149.812C557.561 149.567 557.802 149.343 558.054 149.14C558.306 148.937 558.572 148.766 558.852 148.626C559.139 148.479 559.444 148.367 559.766 148.29C560.095 148.206 560.445 148.164 560.816 148.164C561.404 148.164 561.918 148.262 562.359 148.458C562.807 148.654 563.182 148.93 563.483 149.287C563.784 149.637 564.011 150.061 564.165 150.558C564.319 151.055 564.396 151.604 564.396 152.206V159H562.338V152.206C562.338 151.443 562.163 150.852 561.813 150.432C561.463 150.005 560.928 149.791 560.207 149.791C559.682 149.791 559.188 149.917 558.726 150.169C558.271 150.414 557.848 150.75 557.456 151.177V159H555.408V148.332H556.637C556.924 148.332 557.102 148.468 557.172 148.741L557.33 149.812ZM568.248 142.914C568.556 143.425 568.763 143.964 568.868 144.531C568.98 145.091 568.994 145.647 568.91 146.2C568.826 146.746 568.644 147.275 568.364 147.786C568.084 148.29 567.713 148.741 567.251 149.14L566.621 148.741C566.502 148.664 566.449 148.573 566.463 148.468C566.477 148.356 566.516 148.269 566.579 148.206C566.754 147.996 566.904 147.737 567.03 147.429C567.163 147.114 567.251 146.774 567.293 146.41C567.335 146.039 567.321 145.658 567.251 145.266C567.181 144.874 567.034 144.489 566.81 144.111C566.712 143.95 566.684 143.806 566.726 143.68C566.768 143.554 566.859 143.463 566.999 143.407L568.248 142.914ZM574.702 159.168C573.841 159.168 573.176 158.926 572.707 158.443C572.245 157.96 572.014 157.271 572.014 156.375V149.991H570.775C570.656 149.991 570.555 149.956 570.471 149.886C570.394 149.809 570.355 149.697 570.355 149.55V148.72L572.088 148.479L572.55 145.297C572.578 145.178 572.63 145.087 572.707 145.024C572.791 144.954 572.896 144.919 573.022 144.919H574.062V148.5H577.086V149.991H574.062V156.238C574.062 156.658 574.163 156.973 574.366 157.183C574.576 157.386 574.842 157.488 575.164 157.488C575.353 157.488 575.514 157.463 575.647 157.414C575.787 157.365 575.906 157.313 576.004 157.257C576.102 157.194 576.186 157.138 576.256 157.089C576.326 157.04 576.389 157.015 576.445 157.015C576.515 157.015 576.568 157.033 576.603 157.068C576.645 157.096 576.687 157.145 576.729 157.215L577.338 158.202C577.002 158.51 576.603 158.748 576.141 158.916C575.679 159.084 575.199 159.168 574.702 159.168Z" fill="#2B2B2B"/>
<path d="M261.272 125.44C263.072 125.44 264.584 125.224 265.808 124.792C267.032 124.36 268.004 123.784 268.724 123.064C269.468 122.344 269.996 121.504 270.308 120.544C270.644 119.584 270.812 118.564 270.812 117.484C270.812 116.356 270.632 115.348 270.272 114.46C269.912 113.548 269.348 112.78 268.58 112.156C267.812 111.508 266.816 111.016 265.592 110.68C264.392 110.344 262.94 110.176 261.236 110.176H251.48V125.44H261.272ZM251.48 88.432V103.48H259.184C262.496 103.48 264.992 102.88 266.672 101.68C268.376 100.48 269.228 98.572 269.228 95.956C269.228 93.244 268.46 91.312 266.924 90.16C265.388 89.008 262.988 88.432 259.724 88.432H251.48ZM259.724 80.944C263.132 80.944 266.048 81.268 268.472 81.916C270.896 82.564 272.876 83.488 274.412 84.688C275.972 85.888 277.112 87.34 277.832 89.044C278.552 90.748 278.912 92.668 278.912 94.804C278.912 96.028 278.732 97.204 278.372 98.332C278.012 99.436 277.448 100.48 276.68 101.464C275.936 102.424 274.976 103.3 273.8 104.092C272.648 104.884 271.268 105.556 269.66 106.108C276.812 107.716 280.388 111.58 280.388 117.7C280.388 119.908 279.968 121.948 279.128 123.82C278.288 125.692 277.064 127.312 275.456 128.68C273.848 130.024 271.868 131.08 269.516 131.848C267.164 132.616 264.476 133 261.452 133H241.796V80.944H259.724ZM311.086 110.284C311.086 109.132 310.918 108.052 310.582 107.044C310.27 106.012 309.79 105.112 309.142 104.344C308.494 103.576 307.666 102.976 306.658 102.544C305.674 102.088 304.522 101.86 303.202 101.86C300.634 101.86 298.606 102.592 297.118 104.056C295.654 105.52 294.718 107.596 294.31 110.284H311.086ZM294.13 115.648C294.274 117.544 294.61 119.188 295.138 120.58C295.666 121.948 296.362 123.088 297.226 124C298.09 124.888 299.11 125.56 300.286 126.016C301.486 126.448 302.806 126.664 304.246 126.664C305.686 126.664 306.922 126.496 307.954 126.16C309.01 125.824 309.922 125.452 310.69 125.044C311.482 124.636 312.166 124.264 312.742 123.928C313.342 123.592 313.918 123.424 314.47 123.424C315.214 123.424 315.766 123.7 316.126 124.252L318.682 127.492C317.698 128.644 316.594 129.616 315.37 130.408C314.146 131.176 312.862 131.8 311.518 132.28C310.198 132.736 308.842 133.06 307.45 133.252C306.082 133.444 304.75 133.54 303.454 133.54C300.886 133.54 298.498 133.12 296.29 132.28C294.082 131.416 292.162 130.156 290.53 128.5C288.898 126.82 287.614 124.756 286.678 122.308C285.742 119.836 285.274 116.98 285.274 113.74C285.274 111.22 285.682 108.856 286.498 106.648C287.314 104.416 288.478 102.484 289.99 100.852C291.526 99.196 293.386 97.888 295.57 96.928C297.778 95.968 300.262 95.488 303.022 95.488C305.35 95.488 307.498 95.86 309.466 96.604C311.434 97.348 313.126 98.44 314.542 99.88C315.958 101.296 317.062 103.048 317.854 105.136C318.67 107.2 319.078 109.564 319.078 112.228C319.078 113.572 318.934 114.484 318.646 114.964C318.358 115.42 317.806 115.648 316.99 115.648H294.13ZM337.712 133.576C334.496 133.576 332.024 132.676 330.296 130.876C328.592 129.052 327.74 126.544 327.74 123.352V102.724H323.96C323.48 102.724 323.072 102.568 322.736 102.256C322.4 101.944 322.232 101.476 322.232 100.852V97.324L328.172 96.352L330.044 86.272C330.164 85.792 330.392 85.42 330.728 85.156C331.064 84.892 331.496 84.76 332.024 84.76H336.632V96.388H352.004L353.912 86.272C354.032 85.792 354.248 85.42 354.56 85.156C354.896 84.892 355.34 84.76 355.892 84.76H360.464V96.388H370.328V102.724H360.464V122.74C360.464 123.892 360.752 124.792 361.328 125.44C361.904 126.088 362.684 126.412 363.668 126.412C364.196 126.412 364.652 126.352 365.036 126.232C365.42 126.088 365.744 125.944 366.008 125.8C366.296 125.656 366.548 125.524 366.764 125.404C366.98 125.26 367.196 125.188 367.412 125.188C367.676 125.188 367.892 125.26 368.06 125.404C368.228 125.524 368.408 125.716 368.6 125.98L371.264 130.3C369.968 131.38 368.48 132.196 366.8 132.748C365.12 133.3 363.38 133.576 361.58 133.576C358.364 133.576 355.892 132.676 354.164 130.876C352.436 129.052 351.572 126.544 351.572 123.352V102.724H336.632V122.74C336.632 123.892 336.908 124.792 337.46 125.44C338.036 126.088 338.816 126.412 339.8 126.412C340.352 126.412 340.808 126.352 341.168 126.232C341.552 126.088 341.876 125.944 342.14 125.8C342.428 125.656 342.68 125.524 342.896 125.404C343.112 125.26 343.328 125.188 343.544 125.188C343.808 125.188 344.024 125.26 344.192 125.404C344.36 125.524 344.54 125.716 344.732 125.98L347.396 130.3C346.1 131.38 344.612 132.196 342.932 132.748C341.252 133.3 339.512 133.576 337.712 133.576ZM399.54 110.284C399.54 109.132 399.372 108.052 399.036 107.044C398.724 106.012 398.244 105.112 397.596 104.344C396.948 103.576 396.12 102.976 395.112 102.544C394.128 102.088 392.976 101.86 391.656 101.86C389.088 101.86 387.06 102.592 385.572 104.056C384.108 105.52 383.172 107.596 382.764 110.284H399.54ZM382.584 115.648C382.728 117.544 383.064 119.188 383.592 120.58C384.12 121.948 384.816 123.088 385.68 124C386.544 124.888 387.564 125.56 388.74 126.016C389.94 126.448 391.26 126.664 392.7 126.664C394.14 126.664 395.376 126.496 396.408 126.16C397.464 125.824 398.376 125.452 399.144 125.044C399.936 124.636 400.62 124.264 401.196 123.928C401.796 123.592 402.372 123.424 402.924 123.424C403.668 123.424 404.22 123.7 404.58 124.252L407.136 127.492C406.152 128.644 405.048 129.616 403.824 130.408C402.6 131.176 401.316 131.8 399.972 132.28C398.652 132.736 397.296 133.06 395.904 133.252C394.536 133.444 393.204 133.54 391.908 133.54C389.34 133.54 386.952 133.12 384.744 132.28C382.536 131.416 380.616 130.156 378.984 128.5C377.352 126.82 376.068 124.756 375.132 122.308C374.196 119.836 373.728 116.98 373.728 113.74C373.728 111.22 374.136 108.856 374.952 106.648C375.768 104.416 376.932 102.484 378.444 100.852C379.98 99.196 381.84 97.888 384.024 96.928C386.232 95.968 388.716 95.488 391.476 95.488C393.804 95.488 395.952 95.86 397.92 96.604C399.888 97.348 401.58 98.44 402.996 99.88C404.412 101.296 405.516 103.048 406.308 105.136C407.124 107.2 407.532 109.564 407.532 112.228C407.532 113.572 407.388 114.484 407.1 114.964C406.812 115.42 406.26 115.648 405.444 115.648H382.584ZM422.593 102.472C423.745 100.264 425.113 98.536 426.697 97.288C428.281 96.016 430.153 95.38 432.312 95.38C434.017 95.38 435.385 95.752 436.417 96.496L435.841 103.156C435.721 103.588 435.541 103.9 435.301 104.092C435.085 104.26 434.785 104.344 434.401 104.344C434.041 104.344 433.501 104.284 432.781 104.164C432.085 104.044 431.401 103.984 430.729 103.984C429.745 103.984 428.869 104.128 428.101 104.416C427.333 104.704 426.637 105.124 426.013 105.676C425.413 106.204 424.873 106.852 424.393 107.62C423.937 108.388 423.505 109.264 423.097 110.248V133H414.205V96.064H419.425C420.337 96.064 420.973 96.232 421.333 96.568C421.693 96.88 421.933 97.456 422.053 98.296L422.593 102.472ZM472.711 88.9H457.015V133H447.331V88.9H431.635V80.944H472.711V88.9ZM486.983 96.064V133H478.055V96.064H486.983ZM488.207 85.3C488.207 86.068 488.051 86.788 487.739 87.46C487.427 88.132 487.007 88.72 486.479 89.224C485.975 89.728 485.375 90.136 484.679 90.448C483.983 90.736 483.239 90.88 482.447 90.88C481.679 90.88 480.947 90.736 480.251 90.448C479.579 90.136 478.991 89.728 478.487 89.224C477.983 88.72 477.575 88.132 477.263 87.46C476.975 86.788 476.831 86.068 476.831 85.3C476.831 84.508 476.975 83.764 477.263 83.068C477.575 82.372 477.983 81.772 478.487 81.268C478.991 80.764 479.579 80.368 480.251 80.08C480.947 79.768 481.679 79.612 482.447 79.612C483.239 79.612 483.983 79.768 484.679 80.08C485.375 80.368 485.975 80.764 486.479 81.268C487.007 81.772 487.427 82.372 487.739 83.068C488.051 83.764 488.207 84.508 488.207 85.3ZM496.048 133V96.064H501.484C502.636 96.064 503.392 96.604 503.752 97.684L504.328 100.42C504.976 99.7 505.648 99.04 506.344 98.44C507.064 97.84 507.82 97.324 508.612 96.892C509.428 96.46 510.292 96.124 511.204 95.884C512.14 95.62 513.16 95.488 514.264 95.488C516.592 95.488 518.5 96.124 519.988 97.396C521.5 98.644 522.628 100.312 523.372 102.4C523.948 101.176 524.668 100.132 525.532 99.268C526.396 98.38 527.344 97.66 528.376 97.108C529.408 96.556 530.5 96.148 531.652 95.884C532.828 95.62 534.004 95.488 535.18 95.488C537.22 95.488 539.032 95.8 540.616 96.424C542.2 97.048 543.532 97.96 544.612 99.16C545.692 100.36 546.508 101.824 547.06 103.552C547.636 105.28 547.924 107.26 547.924 109.492V133H539.032V109.492C539.032 107.14 538.516 105.376 537.484 104.2C536.452 103 534.94 102.4 532.948 102.4C532.036 102.4 531.184 102.556 530.392 102.868C529.624 103.18 528.94 103.636 528.34 104.236C527.764 104.812 527.308 105.544 526.972 106.432C526.636 107.32 526.468 108.34 526.468 109.492V133H517.54V109.492C517.54 107.02 517.036 105.22 516.028 104.092C515.044 102.964 513.592 102.4 511.672 102.4C510.376 102.4 509.164 102.724 508.036 103.372C506.932 103.996 505.9 104.86 504.94 105.964V133H496.048ZM580.172 110.284C580.172 109.132 580.004 108.052 579.668 107.044C579.356 106.012 578.876 105.112 578.228 104.344C577.58 103.576 576.752 102.976 575.744 102.544C574.76 102.088 573.608 101.86 572.288 101.86C569.72 101.86 567.692 102.592 566.204 104.056C564.74 105.52 563.804 107.596 563.396 110.284H580.172ZM563.216 115.648C563.36 117.544 563.696 119.188 564.224 120.58C564.752 121.948 565.448 123.088 566.312 124C567.176 124.888 568.196 125.56 569.372 126.016C570.572 126.448 571.892 126.664 573.332 126.664C574.772 126.664 576.008 126.496 577.04 126.16C578.096 125.824 579.008 125.452 579.776 125.044C580.568 124.636 581.252 124.264 581.828 123.928C582.428 123.592 583.004 123.424 583.556 123.424C584.3 123.424 584.852 123.7 585.212 124.252L587.768 127.492C586.784 128.644 585.68 129.616 584.456 130.408C583.232 131.176 581.948 131.8 580.604 132.28C579.284 132.736 577.928 133.06 576.536 133.252C575.168 133.444 573.836 133.54 572.54 133.54C569.972 133.54 567.584 133.12 565.376 132.28C563.168 131.416 561.248 130.156 559.616 128.5C557.984 126.82 556.7 124.756 555.764 122.308C554.828 119.836 554.36 116.98 554.36 113.74C554.36 111.22 554.768 108.856 555.584 106.648C556.4 104.416 557.564 102.484 559.076 100.852C560.612 99.196 562.472 97.888 564.656 96.928C566.864 95.968 569.348 95.488 572.108 95.488C574.436 95.488 576.584 95.86 578.552 96.604C580.52 97.348 582.212 98.44 583.628 99.88C585.044 101.296 586.148 103.048 586.94 105.136C587.756 107.2 588.164 109.564 588.164 112.228C588.164 113.572 588.02 114.484 587.732 114.964C587.444 115.42 586.892 115.648 586.076 115.648H563.216ZM603.225 102.472C604.377 100.264 605.745 98.536 607.329 97.288C608.913 96.016 610.785 95.38 612.945 95.38C614.649 95.38 616.017 95.752 617.049 96.496L616.473 103.156C616.353 103.588 616.173 103.9 615.933 104.092C615.717 104.26 615.417 104.344 615.033 104.344C614.673 104.344 614.133 104.284 613.413 104.164C612.717 104.044 612.033 103.984 611.361 103.984C610.377 103.984 609.501 104.128 608.733 104.416C607.965 104.704 607.269 105.124 606.645 105.676C606.045 106.204 605.505 106.852 605.025 107.62C604.569 108.388 604.137 109.264 603.729 110.248V133H594.837V96.064H600.057C600.969 96.064 601.605 96.232 601.965 96.568C602.325 96.88 602.565 97.456 602.685 98.296L603.225 102.472Z" fill="url(#paint0_linear)"/>
<path d="M212 106C212 164.542 164.542 212 106 212C47.4578 212 0 164.542 0 106C0 47.4578 47.4578 0 106 0C164.542 0 212 47.4578 212 106Z" fill="url(#paint1_linear)"/>
<path d="M106 26C92.8439 26 79.8909 29.2446 68.2883 35.4463C56.6856 41.648 46.7916 50.6155 39.4824 61.5544C32.1733 72.4933 27.6747 85.0659 26.3852 98.1586C25.0957 111.251 27.055 124.46 32.0896 136.615C37.1242 148.769 45.0787 159.495 55.2485 167.841C65.4183 176.187 77.4895 181.896 90.3928 184.463C103.296 187.029 116.633 186.374 129.223 182.555C141.812 178.736 153.266 171.871 162.569 162.569L106 106V26Z" fill="white"/>
<defs>
<linearGradient id="paint0_linear" x1="455" y1="62" x2="455" y2="143" gradientUnits="userSpaceOnUse">
<stop stop-color="#F2DE2B"/>
<stop offset="1" stop-color="#F32D2D"/>
</linearGradient>
<linearGradient id="paint1_linear" x1="106" y1="0" x2="106" y2="212" gradientUnits="userSpaceOnUse">
<stop stop-color="#F2DE2B"/>
<stop offset="1" stop-color="#F32D2D"/>
</linearGradient>
</defs>
</svg>
